<svg xmlns:dc="http://purl.org/dc/elements/1.1/" xmlns:cc="http://creativecommons.org/ns#" xmlns:rdf="http://www.w3.org/1999/02/22-rdf-syntax-ns#" xmlns:svg="http://www.w3.org/2000/svg" xmlns="http://www.w3.org/2000/svg" viewBox="0 0 666.66669 666.66669" height="666.66669" width="666.66669" xml:space="preserve" id="svg2" version="1.1"><metadata id="metadata8"><rdf:RDF><cc:Work rdf:about=""><dc:format>image/svg+xml</dc:format><dc:type rdf:resource="http://purl.org/dc/dcmitype/StillImage"/></cc:Work></rdf:RDF></metadata><defs id="defs6"/><g transform="matrix(1.3333333,0,0,-1.3333333,0,666.66667)" id="g10"><g transform="scale(0.1)" id="g12"><path id="path16" style="fill:#e2d047;fill-opacity:1;fill-rule:nonzero;stroke:none" d="m 1509.55,2363.89 v 138.45 c 0,26.06 0.94,61.2 2.85,105.47 1.89,44.24 3.38,67.46 4.48,69.63 h -8.97 c -18.46,-41.82 -39.37,-80.92 -62.7,-117.28 l -131.94,-196.27 z m 448.74,-240.27 h -131.12 v -230.48 h -317.62 v 230.48 h -474.81 v 236.19 l 495.16,724.02 h 297.27 v -719.94 h 131.12 v -240.27"/><path id="path18" style="fill:#e2d047;fill-opacity:1;fill-rule:nonzero;stroke:none" d="m 2362.24,2486.86 c 0,-134.66 8.41,-227.23 25.25,-277.72 16.82,-50.49 45.06,-75.74 84.7,-75.74 40.17,0 68.53,26.06 85.1,78.19 16.56,52.12 24.84,143.87 24.84,275.27 0,131.94 -8.43,224.38 -25.24,277.32 -16.84,52.93 -45.08,79.4 -84.7,79.4 -39.64,0 -67.88,-25.53 -84.7,-76.55 -16.84,-51.05 -25.25,-144.44 -25.25,-280.17 z m 539.96,0 c 0,-210.67 -35.3,-365 -105.88,-463 -70.58,-98.01 -178.63,-147 -324.13,-147 -142.26,0 -249.49,51.16 -321.7,153.52 -72.21,102.33 -108.31,254.5 -108.31,456.48 0,211.75 35.28,367.02 105.87,465.86 70.57,98.81 178.63,148.22 324.14,148.22 141.71,0 248.8,-51.45 321.28,-154.34 72.49,-102.9 108.73,-256.13 108.73,-459.74"/><path id="path20" style="fill:#e2d047;fill-opacity:1;fill-rule:nonzero;stroke:none" d="m 3464.15,2363.89 v 138.45 c 0,26.06 0.94,61.2 2.85,105.47 1.9,44.24 3.39,67.46 4.48,69.63 h -8.96 c -18.46,-41.82 -39.37,-80.92 -62.71,-117.28 l -131.93,-196.27 z m 448.74,-240.27 h -131.11 v -230.48 h -317.63 v 230.48 h -474.81 v 236.19 l 495.17,724.02 h 297.27 v -719.94 h 131.11 v -240.27"/><path id="path22" style="fill:none;stroke:#131112;stroke-width:21.62809944;stroke-linecap:round;stroke-linejoin:round;stroke-miterlimit:10;stroke-dasharray:none;stroke-opacity:1" d="M 557.504,2819.64 H 1038.87"/><path id="path24" style="fill:none;stroke:#131112;stroke-width:21.62809944;stroke-linecap:round;stroke-linejoin:round;stroke-miterlimit:10;stroke-dasharray:none;stroke-opacity:1" d="m 1154.41,2819.64 h 102.76"/><path id="path26" style="fill:none;stroke:#131112;stroke-width:21.62809944;stroke-linecap:round;stroke-linejoin:round;stroke-miterlimit:10;stroke-dasharray:none;stroke-opacity:1" d="M 470.328,2955.12 H 1332.08"/><path id="path28" style="fill:none;stroke:#131112;stroke-width:21.62809944;stroke-linecap:round;stroke-linejoin:round;stroke-miterlimit:10;stroke-dasharray:none;stroke-opacity:1" d="M 399.398,2955.12 H 328.465"/><path id="path30" style="fill:none;stroke:#131112;stroke-width:21.62809944;stroke-linecap:round;stroke-linejoin:round;stroke-miterlimit:10;stroke-dasharray:none;stroke-opacity:1" d="M 470.328,3083.83 H 756.434"/><path id="path32" style="fill:none;stroke:#131112;stroke-width:21.62809944;stroke-linecap:round;stroke-linejoin:round;stroke-miterlimit:10;stroke-dasharray:none;stroke-opacity:1" d="M 833.027,3083.83 H 1433.89"/><path id="path34" style="fill:none;stroke:#131112;stroke-width:21.62809944;stroke-linecap:round;stroke-linejoin:round;stroke-miterlimit:10;stroke-dasharray:none;stroke-opacity:1" d="m 3960.09,1744.76 h 515.12"/><path id="path36" style="fill:none;stroke:#131112;stroke-width:21.62809944;stroke-linecap:round;stroke-linejoin:round;stroke-miterlimit:10;stroke-dasharray:none;stroke-opacity:1" d="m 4558.99,1744.76 h 74.51"/><path id="path38" style="fill:none;stroke:#131112;stroke-width:21.62809944;stroke-linecap:round;stroke-linejoin:round;stroke-miterlimit:10;stroke-dasharray:none;stroke-opacity:1" d="m 4062.96,1880.25 h 675.07"/><path id="path40" style="fill:none;stroke:#131112;stroke-width:21.62809944;stroke-linecap:round;stroke-linejoin:round;stroke-miterlimit:10;stroke-dasharray:none;stroke-opacity:1" d="m 4011.52,1880.25 h -51.43"/><path id="path42" style="fill:none;stroke:#131112;stroke-width:21.62809944;stroke-linecap:round;stroke-linejoin:round;stroke-miterlimit:10;stroke-dasharray:none;stroke-opacity:1" d="m 3960.09,2008.96 h 310.32"/><path id="path44" style="fill:none;stroke:#131112;stroke-width:21.62809944;stroke-linecap:round;stroke-linejoin:round;stroke-miterlimit:10;stroke-dasharray:none;stroke-opacity:1" d="m 4325.95,2008.96 h 233.04"/><path id="path46" style="fill:none;stroke:#131112;stroke-width:32.67509842;stroke-linecap:butt;stroke-linejoin:miter;stroke-miterlimit:10;stroke-dasharray:none;stroke-opacity:1" d="m 1571.19,2368.43 v 138.46 c 0,26.06 0.94,61.2 2.85,105.47 1.9,44.24 3.39,67.46 4.48,69.63 h -8.96 c -18.46,-41.82 -39.37,-80.92 -62.71,-117.28 l -131.94,-196.28 z m 448.75,-240.26 h -131.12 v -230.48 h -317.63 v 230.48 h -474.81 v 236.19 l 495.17,724.02 h 297.27 v -719.95 h 131.12 z"/><path id="path48" style="fill:none;stroke:#131112;stroke-width:32.67509842;stroke-linecap:butt;stroke-linejoin:miter;stroke-miterlimit:10;stroke-dasharray:none;stroke-opacity:1" d="m 2423.89,2491.41 c 0,-134.66 8.41,-227.23 25.25,-277.72 16.82,-50.49 45.06,-75.74 84.7,-75.74 40.17,0 68.53,26.06 85.1,78.19 16.56,52.12 24.83,143.87 24.83,275.27 0,131.94 -8.42,224.38 -25.24,277.32 -16.83,52.93 -45.07,79.4 -84.69,79.4 -39.64,0 -67.88,-25.53 -84.7,-76.55 -16.84,-51.05 -25.25,-144.44 -25.25,-280.17 z m 539.95,0 c 0,-210.67 -35.3,-365 -105.87,-463.01 -70.58,-98 -178.64,-146.99 -324.13,-146.99 -142.26,0 -249.5,51.16 -321.7,153.51 -72.22,102.34 -108.32,254.51 -108.32,456.49 0,211.75 35.29,367.02 105.88,465.86 70.57,98.81 178.62,148.21 324.14,148.21 141.7,0 248.79,-51.44 321.28,-154.33 72.49,-102.9 108.72,-256.14 108.72,-459.74 z"/><path id="path50" style="fill:none;stroke:#131112;stroke-width:32.67509842;stroke-linecap:butt;stroke-linejoin:miter;stroke-miterlimit:10;stroke-dasharray:none;stroke-opacity:1" d="m 3525.8,2368.43 v 138.46 c 0,26.06 0.93,61.2 2.85,105.47 1.89,44.24 3.38,67.46 4.48,69.63 h -8.96 c -18.46,-41.82 -39.38,-80.92 -62.71,-117.28 l -131.94,-196.28 z m 448.74,-240.26 H 3843.42 V 1897.69 H 3525.8 v 230.48 h -474.81 v 236.19 l 495.17,724.02 h 297.26 v -719.95 h 131.12 z"/><g transform="scale(10)" id="g52"><text id="text56" style="font-variant:normal;font-weight:800;font-size:37.1855011px;font-family:OpenSans;-inkscape-font-specification:OpenSans-Extrabold;writing-mode:lr-tb;fill:#131112;fill-opacity:1;fill-rule:nonzero;stroke:none" transform="matrix(1,0,0,-1,190.382,137.6)"><tspan id="tspan54" y="0" x="0 20.408688 45.574188 70.739693 100.37151">ERROR</tspan></text>
</g><path id="path58" style="fill:none;stroke:#131112;stroke-width:21.62809944;stroke-linecap:round;stroke-linejoin:round;stroke-miterlimit:10;stroke-dasharray:none;stroke-opacity:1" d="m 4184.89,2849 v 110.39"/><path id="path60" style="fill:none;stroke:#131112;stroke-width:21.62809944;stroke-linecap:round;stroke-linejoin:round;stroke-miterlimit:10;stroke-dasharray:none;stroke-opacity:1" d="m 4107.83,2817.08 -78.05,78.06"/><path id="path62" style="fill:none;stroke:#131112;stroke-width:21.62809944;stroke-linecap:round;stroke-linejoin:round;stroke-miterlimit:10;stroke-dasharray:none;stroke-opacity:1" d="M 4075.92,2740.02 H 3965.53"/><path id="path64" style="fill:none;stroke:#131112;stroke-width:21.62809944;stroke-linecap:round;stroke-linejoin:round;stroke-miterlimit:10;stroke-dasharray:none;stroke-opacity:1" d="m 4107.83,2662.97 -78.05,-78.06"/><path id="path66" style="fill:none;stroke:#131112;stroke-width:21.62809944;stroke-linecap:round;stroke-linejoin:round;stroke-miterlimit:10;stroke-dasharray:none;stroke-opacity:1" d="M 4184.89,2631.05 V 2520.66"/><path id="path68" style="fill:none;stroke:#131112;stroke-width:21.62809944;stroke-linecap:round;stroke-linejoin:round;stroke-miterlimit:10;stroke-dasharray:none;stroke-opacity:1" d="m 4261.95,2662.97 78.06,-78.06"/><path id="path70" style="fill:none;stroke:#131112;stroke-width:21.62809944;stroke-linecap:round;stroke-linejoin:round;stroke-miterlimit:10;stroke-dasharray:none;stroke-opacity:1" d="m 4293.87,2740.02 h 110.39"/><path id="path72" style="fill:none;stroke:#131112;stroke-width:21.62809944;stroke-linecap:round;stroke-linejoin:round;stroke-miterlimit:10;stroke-dasharray:none;stroke-opacity:1" d="m 4261.95,2817.08 78.06,78.06"/><path id="path74" style="fill:none;stroke:#131112;stroke-width:21.62809944;stroke-linecap:round;stroke-linejoin:round;stroke-miterlimit:10;stroke-dasharray:none;stroke-opacity:1" d="m 722.613,2299.34 v 79.79"/><path id="path76" style="fill:none;stroke:#131112;stroke-width:21.62809944;stroke-linecap:round;stroke-linejoin:round;stroke-miterlimit:10;stroke-dasharray:none;stroke-opacity:1" d="m 666.914,2276.26 -56.422,56.43"/><path id="path78" style="fill:none;stroke:#131112;stroke-width:21.62809944;stroke-linecap:round;stroke-linejoin:round;stroke-miterlimit:10;stroke-dasharray:none;stroke-opacity:1" d="M 643.84,2220.56 H 564.051"/><path id="path80" style="fill:none;stroke:#131112;stroke-width:21.62809944;stroke-linecap:round;stroke-linejoin:round;stroke-miterlimit:10;stroke-dasharray:none;stroke-opacity:1" d="m 666.914,2164.86 -56.422,-56.42"/><path id="path82" style="fill:none;stroke:#131112;stroke-width:21.62809944;stroke-linecap:round;stroke-linejoin:round;stroke-miterlimit:10;stroke-dasharray:none;stroke-opacity:1" d="M 722.613,2141.79 V 2062"/><path id="path84" style="fill:none;stroke:#131112;stroke-width:21.62809944;stroke-linecap:round;stroke-linejoin:round;stroke-miterlimit:10;stroke-dasharray:none;stroke-opacity:1" d="m 778.313,2164.86 56.421,-56.42"/><path id="path86" style="fill:none;stroke:#131112;stroke-width:21.62809944;stroke-linecap:round;stroke-linejoin:round;stroke-miterlimit:10;stroke-dasharray:none;stroke-opacity:1" d="m 801.383,2220.56 h 79.793"/><path id="path88" style="fill:none;stroke:#131112;stroke-width:21.62809944;stroke-linecap:round;stroke-linejoin:round;stroke-miterlimit:10;stroke-dasharray:none;stroke-opacity:1" d="m 778.313,2276.26 56.421,56.43"/><path id="path90" style="fill:none;stroke:#131112;stroke-width:21.62809944;stroke-linecap:round;stroke-linejoin:round;stroke-miterlimit:10;stroke-dasharray:none;stroke-opacity:1" d="m 2881.83,3947.46 v 79.8"/><path id="path92" style="fill:none;stroke:#131112;stroke-width:21.62809944;stroke-linecap:round;stroke-linejoin:round;stroke-miterlimit:10;stroke-dasharray:none;stroke-opacity:1" d="m 2826.13,3924.39 -56.42,56.42"/><path id="path94" style="fill:none;stroke:#131112;stroke-width:21.62809944;stroke-linecap:round;stroke-linejoin:round;stroke-miterlimit:10;stroke-dasharray:none;stroke-opacity:1" d="m 2803.06,3868.69 h -79.8"/><path id="path96" style="fill:none;stroke:#131112;stroke-width:21.62809944;stroke-linecap:round;stroke-linejoin:round;stroke-miterlimit:10;stroke-dasharray:none;stroke-opacity:1" d="m 2826.13,3812.99 -56.42,-56.42"/><path id="path98" style="fill:none;stroke:#131112;stroke-width:21.62809944;stroke-linecap:round;stroke-linejoin:round;stroke-miterlimit:10;stroke-dasharray:none;stroke-opacity:1" d="m 2881.83,3789.92 v -79.79"/><path id="path100" style="fill:none;stroke:#131112;stroke-width:21.62809944;stroke-linecap:round;stroke-linejoin:round;stroke-miterlimit:10;stroke-dasharray:none;stroke-opacity:1" d="m 2937.53,3812.99 56.42,-56.42"/><path id="path102" style="fill:none;stroke:#131112;stroke-width:21.62809944;stroke-linecap:round;stroke-linejoin:round;stroke-miterlimit:10;stroke-dasharray:none;stroke-opacity:1" d="m 2960.6,3868.69 h 79.79"/><path id="path104" style="fill:none;stroke:#131112;stroke-width:21.62809944;stroke-linecap:round;stroke-linejoin:round;stroke-miterlimit:10;stroke-dasharray:none;stroke-opacity:1" d="m 2937.53,3924.39 56.42,56.42"/><path id="path106" style="fill:none;stroke:#131112;stroke-width:24.18709946;stroke-linecap:round;stroke-linejoin:round;stroke-miterlimit:10;stroke-dasharray:none;stroke-opacity:1" d="m 3856.34,1300.07 h -2737.6 v 430.99 h 2737.6 z"/><g transform="scale(10)" id="g108"><text id="text112" style="font-variant:normal;font-weight:normal;font-size:13.06999969px;font-family:MyriadPro;-inkscape-font-specification:MyriadPro-Regular;writing-mode:lr-tb;fill:#131112;fill-opacity:1;fill-rule:nonzero;stroke:none" transform="matrix(1,0,0,-1,154.635,104.45)"><tspan id="tspan110" y="0" x="0 6.4043002 13.65815 20.206221 22.97706 27.120127 33.668198 41.026608 48.228176 54.776249 59.951965 64.200012 70.748085 78.11956 80.890404 88.327232 94.626968 101.93215 108.48022 111.25106 118.62254 125.79797 132.34604 137.52176 140.2926 147.54645 154.72188 159.04805 161.81889 168.32768 174.37909 177.43747 182.61319 186.9003">The requested page does not exist.</tspan></text>
</g><path id="path114" style="fill:none;stroke:#131112;stroke-width:21.62809944;stroke-linecap:round;stroke-linejoin:round;stroke-miterlimit:10;stroke-dasharray:none;stroke-opacity:1" d="m 1332.08,3278.02 v 345.29 h 1794.93 v -767.2"/><path id="path116" style="fill:none;stroke:#131112;stroke-width:21.62809944;stroke-linecap:round;stroke-linejoin:round;stroke-miterlimit:10;stroke-dasharray:none;stroke-opacity:1" d="M 2494.37,3868.69 V 3436.4 h 1190.27 v -196.69"/><path id="path118" style="fill:none;stroke:#131112;stroke-width:21.62809944;stroke-linecap:round;stroke-linejoin:round;stroke-miterlimit:10;stroke-dasharray:none;stroke-opacity:1" d="m 1374.91,3235.19 c 0,-23.65 -19.17,-42.83 -42.83,-42.83 -23.65,0 -42.83,19.18 -42.83,42.83 0,23.66 19.18,42.83 42.83,42.83 23.66,0 42.83,-19.17 42.83,-42.83 z"/><path id="path120" style="fill:none;stroke:#131112;stroke-width:21.62809944;stroke-linecap:round;stroke-linejoin:round;stroke-miterlimit:10;stroke-dasharray:none;stroke-opacity:1" d="m 2537.2,3911.53 c 0,-23.66 -19.18,-42.84 -42.83,-42.84 -23.66,0 -42.84,19.18 -42.84,42.84 0,23.65 19.18,42.83 42.84,42.83 23.65,0 42.83,-19.18 42.83,-42.83 z"/><path id="path122" style="fill:none;stroke:#131112;stroke-width:21.62809944;stroke-linecap:round;stroke-linejoin:round;stroke-miterlimit:10;stroke-dasharray:none;stroke-opacity:1" d="m 3727.47,3192.36 c 0,-23.66 -19.18,-42.83 -42.83,-42.83 -23.66,0 -42.84,19.17 -42.84,42.83 0,23.65 19.18,42.83 42.84,42.83 23.65,0 42.83,-19.18 42.83,-42.83 z"/><path id="path124" style="fill:none;stroke:#131112;stroke-width:21.62809944;stroke-linecap:round;stroke-linejoin:round;stroke-miterlimit:10;stroke-dasharray:none;stroke-opacity:1" d="m 3169.84,2806.17 c 0,-23.66 -19.17,-42.83 -42.83,-42.83 -23.65,0 -42.83,19.17 -42.83,42.83 0,23.65 19.18,42.83 42.83,42.83 23.66,0 42.83,-19.18 42.83,-42.83 z"/><path id="path126" style="fill:none;stroke:#131112;stroke-width:21.62809944;stroke-linecap:round;stroke-linejoin:round;stroke-miterlimit:10;stroke-dasharray:none;stroke-opacity:1" d="M 1052.95,1948.37 951.605,1847.02"/><path id="path128" style="fill:none;stroke:#131112;stroke-width:21.62809944;stroke-linecap:round;stroke-linejoin:round;stroke-miterlimit:10;stroke-dasharray:none;stroke-opacity:1" d="M 951.605,1948.37 1052.95,1847.02"/><path id="path130" style="fill:none;stroke:#131112;stroke-width:21.62809944;stroke-linecap:round;stroke-linejoin:round;stroke-miterlimit:10;stroke-dasharray:none;stroke-opacity:1" d="M 1103.62,3420 1002.28,3318.66"/><path id="path132" style="fill:none;stroke:#131112;stroke-width:21.62809944;stroke-linecap:round;stroke-linejoin:round;stroke-miterlimit:10;stroke-dasharray:none;stroke-opacity:1" d="m 1002.28,3420 101.34,-101.34"/><path id="path134" style="fill:none;stroke:#131112;stroke-width:21.62809944;stroke-linecap:round;stroke-linejoin:round;stroke-miterlimit:10;stroke-dasharray:none;stroke-opacity:1" d="M 4390.68,2271.24 4289.33,2169.89"/><path id="path136" style="fill:none;stroke:#131112;stroke-width:21.62809944;stroke-linecap:round;stroke-linejoin:round;stroke-miterlimit:10;stroke-dasharray:none;stroke-opacity:1" d="m 4289.33,2271.24 101.35,-101.35"/><path id="path138" style="fill:none;stroke:#131112;stroke-width:22.61440086;stroke-linecap:round;stroke-linejoin:round;stroke-miterlimit:10;stroke-dasharray:none;stroke-opacity:1" d="m 1514.7,3998.39 c -32.32,0 -61.9,-11.63 -84.87,-30.89 -23.46,70.61 -89.94,121.6 -168.43,121.6 -87.88,0 -160.65,-63.89 -174.87,-147.72 -9.27,2.65 -19.01,4.16 -29.13,4.16 -58.427,0 -105.795,-47.37 -105.795,-105.79 0,-53.75 40.122,-98.04 92.025,-104.8 v -1 h 471.07 c 73.02,0 132.22,59.2 132.22,132.22 0,73.02 -59.2,132.22 -132.22,132.22 z"/><path id="path140" style="fill:none;stroke:#131112;stroke-width:21.62809944;stroke-linecap:round;stroke-linejoin:round;stroke-miterlimit:10;stroke-dasharray:none;stroke-opacity:1" d="m 3966.05,3325.83 c 23.48,0 44.97,-8.45 61.65,-22.44 17.05,51.3 65.34,88.34 122.37,88.34 63.83,0 116.7,-46.42 127.04,-107.31 6.72,1.92 13.81,3.02 21.15,3.02 42.45,0 76.86,-34.41 76.86,-76.86 0,-39.05 -29.14,-71.22 -66.85,-76.13 v -0.73 h -342.22 c -53.05,0 -96.06,43.01 -96.06,96.06 0,53.04 43.01,96.05 96.06,96.05 z"/><path id="path142" style="fill:none;stroke:#131112;stroke-width:21.62809944;stroke-linecap:round;stroke-linejoin:round;stroke-miterlimit:10;stroke-dasharray:none;stroke-opacity:1" d="m 4437.89,1508.87 c -19.69,0 -37.72,-7.09 -51.71,-18.82 -14.29,43.02 -54.8,74.09 -102.62,74.09 -53.54,0 -97.87,-38.93 -106.54,-90 -5.64,1.61 -11.58,2.53 -17.75,2.53 -35.59,0 -64.45,-28.86 -64.45,-64.46 0,-32.74 24.44,-59.72 56.06,-63.84 v -0.61 h 287.01 c 44.49,0 80.55,36.06 80.55,80.55 0,44.49 -36.06,80.56 -80.55,80.56 z"/><path id="path144" style="fill:none;stroke:#131112;stroke-width:21.62809944;stroke-linecap:round;stroke-linejoin:round;stroke-miterlimit:10;stroke-dasharray:none;stroke-opacity:1" d="m 542.531,1678.86 c 23.481,0 44.973,-8.45 61.657,-22.44 17.046,51.3 65.339,88.34 122.363,88.34 63.84,0 116.707,-46.41 127.039,-107.31 6.73,1.93 13.812,3.02 21.16,3.02 42.445,0 76.855,-34.41 76.855,-76.86 0,-39.05 -29.144,-71.22 -66.851,-76.13 v -0.72 H 542.531 c -53.047,0 -96.051,43 -96.051,96.05 0,53.05 43.004,96.05 96.051,96.05 z"/><path id="path146" style="fill:none;stroke:#131112;stroke-width:21.62809944;stroke-linecap:round;stroke-linejoin:round;stroke-miterlimit:10;stroke-dasharray:32.6751, 76.2418;stroke-dashoffset:0;stroke-opacity:1" d="m 1646.92,4061.82 c 0,0 604.4,492.77 1425.6,265.75 C 3935.15,4089.1 4107.83,3474 4107.83,3474"/><path id="path148" style="fill:none;stroke:#131112;stroke-width:20.16650009;stroke-linecap:round;stroke-linejoin:round;stroke-miterlimit:10;stroke-dasharray:30.4669, 71.0894;stroke-dashoffset:0;stroke-opacity:1" d="M 734.328,2629.6 C 500.016,2593.26 382.227,2095.97 645.789,1898.56"/><path id="path150" style="fill:none;stroke:#131112;stroke-width:21.62809944;stroke-linecap:round;stroke-linejoin:round;stroke-miterlimit:10;stroke-dasharray:32.6751, 76.2418;stroke-dashoffset:0;stroke-opacity:1" d="m 3684.64,1194.74 c 0,0 401.37,-175.46 577.31,69.34"/><path id="path152" style="fill:none;stroke:#131112;stroke-width:21.62809944;stroke-linecap:round;stroke-linejoin:round;stroke-miterlimit:10;stroke-dasharray:none;stroke-opacity:1" d="m 1775.13,3192.36 v 253.46"/><path id="path154" style="fill:none;stroke:#131112;stroke-width:21.62809944;stroke-linecap:round;stroke-linejoin:round;stroke-miterlimit:10;stroke-dasharray:none;stroke-opacity:1" d="m 1713.95,3192.36 v 126.3"/><path id="path156" style="fill:none;stroke:#131112;stroke-width:21.62809944;stroke-linecap:round;stroke-linejoin:round;stroke-miterlimit:10;stroke-dasharray:none;stroke-opacity:1" d="m 2706.7,3133.72 v 185.37"/><path id="path158" style="fill:none;stroke:#131112;stroke-width:21.62809944;stroke-linecap:round;stroke-linejoin:round;stroke-miterlimit:10;stroke-dasharray:none;stroke-opacity:1" d="m 2637.2,3149.53 v 76.88"/><path id="path160" style="fill:none;stroke:#131112;stroke-width:21.62809944;stroke-linecap:round;stroke-linejoin:round;stroke-miterlimit:10;stroke-dasharray:none;stroke-opacity:1" d="m 2575.54,3149.53 v 128.49"/><path id="path162" style="fill:none;stroke:#131112;stroke-width:21.62809944;stroke-linecap:round;stroke-linejoin:round;stroke-miterlimit:10;stroke-dasharray:none;stroke-opacity:1" d="m 1833.94,3192.36 v 126.73"/><path id="path164" style="fill:none;stroke:#131112;stroke-width:21.62809944;stroke-linecap:round;stroke-linejoin:round;stroke-miterlimit:10;stroke-dasharray:none;stroke-opacity:1" d="m 3513.95,3157.08 v 56.69"/><path id="path166" style="fill:none;stroke:#131112;stroke-width:21.62809944;stroke-linecap:round;stroke-linejoin:round;stroke-miterlimit:10;stroke-dasharray:none;stroke-opacity:1" d="m 3452.77,3157.08 v 138.1"/><path id="path168" style="fill:none;stroke:#131112;stroke-width:21.62809944;stroke-linecap:round;stroke-linejoin:round;stroke-miterlimit:10;stroke-dasharray:none;stroke-opacity:1" d="m 3572.76,3157.08 v 98.64"/></g></g></svg>